<svg width="60" height="63" viewBox="0 0 60 63" fill="none" xmlns="http://www.w3.org/2000/svg">
<g clip-path="url(#clip0)">
<path d="M26.8891 27.0041C26.746 24.9807 26.6389 22.9051 27.0909 20.8303C27.615 18.6512 28.7928 16.5383 30.4201 14.8895C32.0475 13.2406 34.0293 11.9903 36.1631 11.2298C35.1687 12.4685 34.6596 14.1189 34.7816 15.6659C36.035 12.8352 38.6646 10.646 41.5488 9.71036C44.433 8.77469 47.4182 8.90946 50.2103 9.52695C48.2564 10.0267 46.7468 11.9107 46.0218 13.8742C45.2968 15.8376 45.1897 17.9194 44.9519 19.9879C44.714 22.0565 44.3928 24.1445 43.2526 25.8985C44.291 25.3061 45.3767 24.7464 46.3449 23.9515C47.313 23.1567 48.1749 22.2116 48.6217 21.057C48.6831 22.7932 48.3654 24.2677 47.5948 25.8917C46.8241 27.5157 45.7331 28.9957 44.5833 30.3581C43.2781 31.8442 41.7474 33.2518 40.006 34.052C37.9425 35.015 35.634 35.1161 33.5433 34.5975C30.2087 33.1438 27.6413 30.6796 26.8891 27.0041Z" fill="#F3705A"/>
<path d="M29.3801 32.985C32.053 37.3095 39.3529 34.8273 39.9672 29.4377C40.0034 29.3852 39.9567 29.353 39.9929 29.3005C38.6944 31.5825 37.1401 32.8355 35.6361 33.1157C36.973 32.1778 37.6604 30.4816 37.9691 28.8343C38.2415 27.2396 38.2079 25.5887 38.3974 24.0142C38.6231 22.3872 39.0978 20.6993 40.3202 19.5274C38.5464 19.6989 36.7737 20.5686 35.3959 21.8658C34.018 23.163 33.0456 24.9725 32.6749 26.8095C32.3724 25.7482 32.5105 24.4483 33.1521 23.4182C31.716 23.9001 30.3429 24.8905 29.4838 26.2356C28.0708 28.2837 28.2516 31.1213 29.3801 32.985Z" fill="#FFD15C"/>
</g>
<path d="M30.7697 23.5713L29.6276 24.7216L28.8186 25.5364L28.1523 26.2075L27.3433 27.0223L26.677 27.6933L25.868 28.5081L6.30868 48.1596L5.59484 48.8785L5.54725 48.9744L2.88223 55.5408L0.0268555 62.4428L6.87976 59.567L13.3995 56.835L13.4947 56.787L14.2086 56.0681L33.7679 36.3687L34.5769 35.5539L35.2432 34.8829L36.0522 34.068L36.7184 33.397L37.5275 32.5822L38.6696 31.4319C40.5256 29.5626 40.5256 26.543 38.6696 24.6737L37.4799 23.4754C35.5763 21.702 32.5781 21.702 30.7697 23.5713ZM13.3044 55.2053L11.8767 53.7674L31.436 34.068L32.8637 35.5059L13.3044 55.2053ZM6.54663 49.9809L12.4002 55.8764L5.88038 58.6084L3.83402 56.5474L6.54663 49.9809ZM9.40201 51.275L28.9613 31.5757L30.627 33.2532L11.1152 53.0005L9.40201 51.275ZM26.7722 29.3709L28.1999 30.8088L8.64057 50.5082L7.21289 49.0702L26.7722 29.3709ZM28.2475 27.885L34.339 34.0201L33.6727 34.6911L32.245 33.2532L31.436 32.4863L29.7704 30.8088L28.9613 29.994L27.5336 28.556L28.2475 27.885ZM29.7228 26.4471L35.8142 32.5822L35.148 33.2532L29.0089 27.1181L29.7228 26.4471ZM30.4842 25.6323L31.6263 24.482C32.9589 23.1399 35.148 23.1399 36.5281 24.482L37.7178 25.6802C39.0503 27.0223 39.0503 29.2271 37.7178 30.6171L36.5757 31.7674L30.4842 25.6323Z" fill="#333333"/>
<defs>
<clipPath id="clip0">
<rect width="29.2" height="29.191" fill="white" transform="matrix(0.823341 0.567547 -0.568216 0.82288 35.3494 0)"/>
</clipPath>
</defs>
</svg>
