<svg width="44" height="44" viewBox="0 0 44 44" fill="none" xmlns="http://www.w3.org/2000/svg">
<path d="M44 22C44 9.872 34.128 0 22 0C9.872 0 0 9.872 0 22C0 28.408 2.752 34.184 7.144 38.208L7.12 38.224L7.832 38.824C7.88 38.864 7.928 38.896 7.976 38.936C8.352 39.248 8.744 39.552 9.144 39.84C9.272 39.936 9.4 40.024 9.536 40.12C9.96 40.416 10.4 40.696 10.848 40.96C10.944 41.016 11.04 41.072 11.144 41.128C11.632 41.408 12.136 41.672 12.648 41.912C12.688 41.928 12.72 41.944 12.76 41.96C14.432 42.736 16.216 43.304 18.08 43.648C18.128 43.656 18.176 43.664 18.224 43.672C18.8 43.776 19.392 43.848 19.984 43.904C20.056 43.912 20.128 43.912 20.2 43.92C20.8 43.968 21.392 44 22 44C22.6 44 23.192 43.968 23.776 43.92C23.848 43.912 23.928 43.912 24 43.904C24.584 43.848 25.168 43.776 25.744 43.672C25.792 43.664 25.84 43.656 25.896 43.648C27.736 43.32 29.488 42.76 31.144 42.008C31.208 41.984 31.264 41.952 31.328 41.928C31.824 41.696 32.304 41.448 32.776 41.176C32.896 41.112 33.008 41.04 33.128 40.976C33.56 40.72 33.984 40.456 34.392 40.176C34.544 40.072 34.688 39.968 34.832 39.864C35.184 39.608 35.528 39.352 35.864 39.08C35.936 39.016 36.016 38.968 36.088 38.904L36.824 38.296L36.8 38.28C41.216 34.24 44 28.44 44 22ZM1.6 22C1.6 10.752 10.752 1.6 22 1.6C33.248 1.6 42.4 10.752 42.4 22C42.4 28.064 39.736 33.512 35.528 37.248C35.296 37.088 35.056 36.936 34.816 36.816L28.04 33.432C27.432 33.128 27.056 32.52 27.056 31.84V29.472C27.216 29.28 27.376 29.056 27.552 28.816C28.432 27.576 29.128 26.2 29.648 24.72C30.664 24.24 31.312 23.232 31.312 22.088V19.256C31.312 18.56 31.056 17.888 30.6 17.36V13.624C30.64 13.208 30.792 10.864 29.096 8.936C27.616 7.256 25.232 6.4 22 6.4C18.768 6.4 16.384 7.256 14.904 8.936C13.208 10.872 13.36 13.216 13.4 13.624V17.36C12.944 17.888 12.688 18.56 12.688 19.256V22.088C12.688 22.968 13.08 23.792 13.76 24.344C14.408 26.88 15.744 28.808 16.232 29.456V31.768C16.232 32.424 15.872 33.024 15.304 33.336L8.976 36.784C8.776 36.896 8.576 37.024 8.376 37.168C4.224 33.432 1.6 28.016 1.6 22ZM33.968 38.504C33.688 38.704 33.4 38.904 33.112 39.088C32.976 39.176 32.848 39.264 32.712 39.344C32.336 39.576 31.952 39.8 31.56 40.008C31.472 40.056 31.384 40.096 31.296 40.144C30.392 40.608 29.464 41 28.504 41.328C28.472 41.336 28.44 41.352 28.4 41.36C27.896 41.528 27.392 41.672 26.88 41.8C26.88 41.8 26.88 41.8 26.872 41.8C26.352 41.928 25.832 42.032 25.304 42.12C25.288 42.12 25.272 42.128 25.264 42.128C24.768 42.208 24.264 42.264 23.76 42.312C23.672 42.32 23.584 42.328 23.496 42.336C23 42.376 22.504 42.4 22 42.4C21.496 42.4 20.984 42.376 20.488 42.336C20.4 42.328 20.312 42.32 20.224 42.32C19.72 42.272 19.216 42.216 18.712 42.136C18.688 42.136 18.664 42.128 18.648 42.12C17.592 41.944 16.552 41.68 15.536 41.344C15.504 41.336 15.472 41.32 15.44 41.312C14.936 41.144 14.44 40.952 13.952 40.744C13.952 40.744 13.944 40.744 13.944 40.736C13.48 40.536 13.024 40.32 12.584 40.08C12.528 40.048 12.464 40.024 12.408 39.992C12 39.776 11.6 39.536 11.208 39.288C11.088 39.216 10.976 39.144 10.856 39.064C10.496 38.824 10.136 38.576 9.784 38.32C9.744 38.296 9.712 38.264 9.68 38.24C9.704 38.224 9.728 38.208 9.76 38.2L16.088 34.752C17.176 34.16 17.856 33.016 17.856 31.784V28.904L17.672 28.68C17.656 28.656 15.928 26.576 15.272 23.712L15.2 23.392L14.904 23.2C14.52 22.952 14.288 22.536 14.288 22.088V19.256C14.288 18.888 14.448 18.536 14.736 18.28L15 18.04V13.584L14.992 13.48C14.992 13.464 14.768 11.504 16.12 9.968C17.28 8.664 19.256 8 22 8C24.744 8 26.72 8.664 27.88 9.976C29.232 11.504 29.016 13.464 29.008 13.48L29 18.04L29.264 18.28C29.552 18.536 29.712 18.888 29.712 19.256V22.088C29.712 22.656 29.32 23.176 28.768 23.352L28.368 23.472L28.24 23.872C27.768 25.336 27.096 26.696 26.24 27.896C26.032 28.192 25.824 28.456 25.648 28.656L25.448 28.88V31.84C25.448 33.128 26.168 34.288 27.32 34.864L34.096 38.248C34.136 38.272 34.184 38.288 34.224 38.312C34.144 38.384 34.056 38.44 33.968 38.504Z" fill="#333333"/>
</svg>
